<svg xmlns="http://www.w3.org/2000/svg" width="48" height="48" viewBox="0 0 48 48"><g fill="none"><rect width="48" height="48" fill="#131415" rx="14"/><g transform="translate(7.125 8.813)"><polygon fill="#FDB300" points="7.364 .994 16.875 0 26.386 .994 33.75 10.764 16.875 30.188 0 10.764"/><g transform="translate(0 10.875)"><polygon fill="#EA6C00" points="6.835 0 16.875 19.313 0 0"/><polygon fill="#EA6C00" points="23.71 0 33.75 19.313 16.875 0" transform="matrix(-1 0 0 1 50.625 0)"/><polygon fill="#FDAD00" points="6.835 0 26.915 0 16.875 19.313"/></g><polygon fill="#FDD231" points="16.875 0 7.364 1.004 6.835 10.875"/><polygon fill="#FDD231" points="26.915 0 17.403 1.004 16.875 10.875" transform="matrix(-1 0 0 1 43.79 0)"/><polygon fill="#FDAD00" points="26.386 10.875 33.75 1.004 33.221 10.875" transform="matrix(-1 0 0 1 60.136 0)"/><polygon fill="#FDAD00" points="0 10.875 7.364 1.004 6.835 10.875"/><polygon fill="#FEEEB7" points="16.875 0 6.835 10.875 26.915 10.875"/></g></g></svg>