<svg xmlns="http://www.w3.org/2000/svg" width="256" height="256" viewBox="0 0 256 256"><g fill="none" fill-rule="evenodd"><rect width="256" height="256" fill="#000" fill-rule="nonzero" rx="60"/><path fill="#C41718" fill-rule="nonzero" d="M.448 54.208C11.648 54.096 14.112 59.248 14.112 66.416 14.112 71.792 13.104 77.84 13.104 83.552 13.104 93.296 18.48 101.024 33.376 102.48 33.824 102.48 33.936 102.368 33.936 102.032L33.936 96.32C33.936 95.872 33.936 95.76 33.488 95.648 23.968 93.968 20.72 89.824 20.72 82.768 20.72 77.28 21.728 71.232 21.728 65.632 21.728 58.8 19.824 52.416 11.2 50.624L11.2 50.288C18.592 48.496 21.392 43.568 21.392 35.84 21.392 30.8 20.72 25.088 20.72 20.16 20.72 14.672 22.4 8.512 33.376 6.72 33.712 6.608 33.824 6.384 33.824 6.048L33.824.448C33.824 1.42108547e-14 33.6 1.42108547e-14 33.264 1.42108547e-14 16.464 1.792 12.992 12.096 12.992 19.712 12.992 24.416 13.776 31.024 13.776 35.728 13.664 42.896 11.088 46.816.448 46.816.112 46.816 0 46.928 0 47.264L0 53.536C0 53.984.112 54.208.448 54.208ZM80.752 59.92 88.368 82.768C88.48 83.104 88.816 83.328 89.264 83.328L97.328 83.328C97.888 83.328 98 83.104 97.888 82.544L73.36 10.304C73.248 9.968 73.024 9.856 72.688 9.856L62.048 9.856C61.712 9.856 61.488 9.968 61.488 10.416 61.376 13.104 61.152 13.888 60.816 14.784L38.08 82.432C37.968 83.104 38.192 83.328 38.752 83.328L46.032 83.328C46.48 83.328 46.704 83.216 46.928 82.656L54.32 59.92 80.752 59.92ZM56.784 51.632C60.704 39.312 65.632 24.64 67.424 17.36L67.536 17.36C69.552 24.976 76.048 44.24 78.4 51.632L56.784 51.632ZM123.648 84.336C139.104 84.336 147.728 75.824 147.728 64.064 147.728 55.888 144.032 49.056 130.928 42.896L126.56 40.88C117.152 36.4 114.464 32.704 114.464 27.552 114.464 23.072 117.376 16.912 128.464 16.912 134.288 16.912 140 18.032 143.696 20.384 144.144 20.72 144.48 20.384 144.48 19.936L144.48 12.656C144.48 12.096 144.368 11.76 143.92 11.536 140.784 9.856 135.408 8.736 128.576 8.736 114.128 8.736 105.616 16.912 105.616 28.336 105.616 35.728 108.752 42.56 121.632 48.72L126.112 50.736C135.968 55.552 138.656 59.472 138.656 64.736 138.656 71.344 134.064 76.16 123.872 76.16 118.048 76.16 111.44 74.592 105.952 70.896 105.616 70.672 105.168 70.896 105.168 71.232L105.168 79.072C105.168 79.744 105.392 80.08 105.84 80.416 109.984 82.88 116.48 84.336 123.648 84.336ZM187.488 46.816C176.4 46.816 173.824 41.664 173.824 34.608 173.824 29.232 174.832 24.976 174.832 18.928 174.944 9.296 169.68 1.232 154.448 1.42108547e-14 154.224 1.42108547e-14 154 .112 154 .448L154 6.384C154 6.72 154 6.832 154.448 6.944 164.192 8.4 167.216 12.88 167.216 19.712 167.216 25.2 166.208 29.792 166.208 35.392 166.208 42.112 168.112 48.496 176.848 50.4L176.848 50.624C169.344 52.528 166.544 57.344 166.544 65.184 166.544 70.224 167.216 77.28 167.216 82.096 167.216 87.472 165.872 93.52 154.56 95.648 154.224 95.76 154.112 95.872 154.112 96.208L154.112 101.92C154.112 102.368 154.336 102.48 154.784 102.368 171.696 100.24 174.944 89.936 174.944 82.656 174.944 77.952 174.16 70 174.16 65.184 174.272 58.016 176.848 54.208 187.488 54.208 187.824 54.208 187.936 54.096 187.936 53.76L187.936 47.488C187.936 47.04 187.824 46.816 187.488 46.816Z" transform="translate(33.808 87.672)"/><path fill="#C41718" fill-rule="nonzero" d="M14.402,24.396 C14.592,24.396 14.63,24.358 14.706,24.168 L15.238,21.888 C15.276,21.736 15.2,21.698 15.01,21.698 L10.108,21.698 C7.03,21.698 5.662,21.698 4.37,21.812 C5.7,20.634 7.6,18.924 9.842,16.454 C13.072,13.034 14.098,10.222 14.06,7.334 C14.06,3.42 11.818,7.10542736e-15 6.802,7.10542736e-15 C4.522,7.10542736e-15 2.508,0.608 0.874,1.596 C0.722,1.71 0.684,1.748 0.684,1.938 L0.684,4.256 C0.684,4.408 0.798,4.484 0.988,4.37 C2.508,3.458 4.066,2.812 6.232,2.812 C9.538,2.812 10.982,4.94 10.982,7.676 C10.982,10.07 10.184,12.464 6.764,15.922 C4.294,18.506 1.71,20.786 0.114,22.154 C0.038,22.23 0,22.306 0,22.496 L0,24.168 C0,24.32 0.038,24.396 0.19,24.396 L14.402,24.396 Z" transform="translate(208.191 61.604)"/></g></svg>