<svg xmlns="http://www.w3.org/2000/svg" width="256" height="256" viewBox="0 0 256 256"><g fill="none" fill-rule="evenodd"><rect width="256" height="256" fill="#131415" fill-rule="nonzero" rx="60"/><g fill-rule="nonzero" transform="translate(38 47)"><polygon fill="#FDB300" points="39.273 5.301 90 0 140.727 5.301 180 57.41 90 161 0 57.41"/><g transform="translate(0 58)"><polygon fill="#EA6C00" points="36.455 0 90 103 0 0"/><polygon fill="#EA6C00" points="126.454 0 180 103 90 0" transform="matrix(-1 0 0 1 270 0)"/><polygon fill="#FDAD00" points="36.455 0 143.546 0 90 103"/></g><polygon fill="#FDD231" points="90 0 39.273 5.355 36.454 58"/><polygon fill="#FDD231" points="143.545 0 92.818 5.355 90 58" transform="matrix(-1 0 0 1 233.545 0)"/><polygon fill="#FDAD00" points="140.727 58 180 5.355 177.181 58" transform="matrix(-1 0 0 1 320.727 0)"/><polygon fill="#FDAD00" points="0 58 39.273 5.355 36.454 58"/><polygon fill="#FEEEB7" points="90 0 36.454 58 143.546 58"/></g></g></svg>